<?xml version="1.0" standalone="no"?>
<!DOCTYPE svg PUBLIC "-//W3C//DTD SVG 20010904//EN"
 "http://www.w3.org/TR/2001/REC-SVG-20010904/DTD/svg10.dtd">
<svg version="1.0" xmlns="http://www.w3.org/2000/svg"
 width="935.000000pt" height="935.000000pt" viewBox="0 0 935.000000 935.000000"
 preserveAspectRatio="xMidYMid meet">
<metadata>
Created by potrace 1.11, written by Peter Selinger 2001-2013
</metadata>
<g transform="translate(0.000000,935.000000) scale(0.100000,-0.100000)"
fill="#000000" stroke="none">
<path d="M444 7801 c-75 -34 -117 -98 -128 -195 -21 -200 -87 -229 -246 -110
-25 19 -49 34 -54 34 -6 0 -10 -372 -11 -947 0 -768 2 -953 13 -976 15 -32 47
-47 103 -47 22 0 61 -11 87 -24 149 -74 290 -92 369 -47 71 41 114 122 138
261 3 19 8 129 10 243 5 236 16 282 74 311 70 37 160 13 406 -109 242 -120
420 -261 760 -597 335 -333 489 -521 875 -1073 350 -499 556 -773 759 -1010
393 -456 746 -725 1186 -902 194 -78 455 -144 624 -159 41 -3 84 -8 95 -10 26
-6 340 -5 381 1 17 2 57 7 90 10 33 4 67 8 75 10 8 1 35 6 60 10 294 47 684
200 960 375 8 5 47 28 85 51 111 66 131 91 116 146 -13 51 -53 55 -199 16
-270 -70 -503 -114 -670 -129 -37 -3 -80 -7 -97 -10 -39 -5 -347 -5 -405 1
-25 2 -72 7 -105 10 -349 34 -780 175 -1075 353 -19 12 -48 29 -65 38 -86 48
-420 286 -490 351 -11 10 -41 35 -67 56 -26 21 -53 43 -60 50 -8 7 -52 46 -98
87 -129 113 -402 382 -537 526 -181 195 -431 472 -552 613 -16 19 -122 137
-166 185 -5 7 -32 36 -59 66 -221 245 -466 493 -661 670 -215 195 -539 434
-716 528 -81 43 -100 67 -90 114 9 43 45 65 116 72 33 3 76 10 95 16 58 17
249 48 345 56 387 30 763 -32 1162 -192 215 -86 438 -201 686 -355 739 -456
1148 -687 1607 -907 261 -125 489 -221 735 -310 141 -51 286 -99 321 -107 11
-2 62 -15 114 -29 127 -33 254 -58 390 -75 41 -6 98 -13 125 -17 126 -17 519
-11 675 11 22 3 59 7 83 11 35 4 246 46 297 59 122 30 213 93 258 179 25 47
27 60 27 166 -1 100 -5 130 -34 230 -107 374 -341 638 -738 835 -148 72 -214
99 -408 165 -120 41 -335 102 -400 114 -11 2 -38 9 -60 14 -22 6 -53 13 -70
15 -16 3 -41 8 -55 11 -50 12 -245 42 -330 51 -36 4 -72 9 -81 10 -8 2 -51 6
-95 10 -43 4 -95 8 -114 10 -209 22 -1003 22 -1400 0 -101 -5 -208 -34 -293
-77 l-62 -31 110 -53 c190 -92 446 -165 695 -198 97 -13 201 -24 290 -31 41
-3 98 -8 125 -10 28 -3 86 -7 130 -10 256 -16 355 -23 430 -30 47 -5 70 -7
184 -20 23 -3 57 -7 75 -10 17 -3 58 -10 91 -16 196 -33 406 -99 580 -184 282
-137 394 -243 382 -361 -6 -62 -45 -108 -109 -131 -81 -27 -578 -26 -788 3
-162 22 -405 74 -545 115 -122 37 -319 101 -350 114 -16 7 -79 32 -140 55
-124 48 -317 132 -480 210 -60 29 -112 54 -115 55 -9 2 -253 126 -320 163 -68
36 -149 80 -285 152 -44 24 -102 55 -130 70 -255 139 -601 311 -755 375 -66
27 -119 50 -155 66 -38 17 -221 81 -310 109 -193 61 -414 109 -580 125 -69 7
-310 8 -340 1 -11 -2 -49 -7 -85 -11 -36 -4 -68 -9 -71 -11 -3 -2 -21 -6 -40
-9 -58 -10 -111 -25 -199 -57 -82 -30 -133 -54 -325 -152 -180 -93 -235 -50
-229 177 2 77 8 117 40 257 68 302 4 486 -191 547 -59 19 -153 16 -201 -6z
m271 -322 c2 -10 7 -24 10 -29 12 -19 14 -92 4 -114 -17 -37 -65 -50 -169 -48
-52 1 -104 4 -115 6 -11 3 -30 5 -42 5 -62 2 17 60 132 97 44 14 89 33 101 42
26 22 42 67 39 112 l-3 35 20 -43 c11 -24 21 -52 23 -63z m-370 -324 c206 -49
316 -96 352 -152 39 -60 15 -180 -83 -408 -51 -120 -52 -201 -5 -355 17 -58
33 -130 33 -160 3 -79 -19 -321 -32 -355 -4 -11 -9 -24 -10 -30 -13 -56 -54
-94 -117 -110 -26 -7 -111 -13 -188 -14 l-140 -2 0 811 0 811 45 -6 c25 -3 90
-16 145 -30z"/>
<path d="M8009 2725 c-30 -6 -71 -19 -91 -29 -82 -40 -165 -165 -193 -292 -16
-75 -35 -165 -40 -194 -25 -137 -36 -192 -50 -240 -48 -171 -57 -211 -58 -270
-1 -88 21 -132 80 -161 40 -19 54 -21 132 -15 47 4 154 9 238 10 123 3 157 6
178 20 32 21 48 61 40 102 -11 62 -32 69 -240 78 -44 1 -91 8 -103 15 -71 38
-53 214 27 263 31 19 55 24 164 28 121 6 129 7 154 33 21 21 27 36 27 72 0 74
-20 86 -145 91 -128 6 -167 17 -175 50 -9 35 3 111 24 153 29 59 65 73 205 77
159 4 201 11 222 34 23 25 23 93 1 115 -19 20 -136 52 -216 60 -104 11 -127
11 -181 0z"/>
<path d="M8945 2726 c-27 -7 -68 -21 -90 -31 -55 -26 -134 -110 -168 -178 -27
-54 -70 -210 -81 -292 -8 -65 -45 -237 -67 -311 -65 -223 -56 -329 33 -373 34
-17 55 -19 122 -15 45 2 151 6 236 8 85 2 167 9 182 14 61 25 74 132 18 162
-27 14 -83 21 -195 24 -99 2 -131 14 -146 53 -12 31 -14 100 -5 134 28 96 62
111 279 123 80 4 118 26 128 74 18 86 -13 112 -143 118 -130 6 -156 12 -169
36 -16 30 -5 120 21 166 33 59 70 76 170 78 219 5 247 11 271 56 19 34 -4 92
-44 111 -94 44 -262 65 -352 43z"/>
</g>
</svg>
